<?xml version="1.0" encoding="UTF-8"?>
<svg id="Layer_1" xmlns="http://www.w3.org/2000/svg" viewBox="0 0 456.03 235.43"><defs><style>.cls-1{fill:#f4f4f4;}.cls-2{fill:#232d36;}.cls-3{fill:#45b69c;}</style></defs><polygon class="cls-3" points="78.42 166.92 49.57 235.43 0 235.43 28.85 166.92 78.42 166.92"/><polygon class="cls-1" points="121.38 142.1 121.38 153.92 76.09 153.92 76.09 80.71 120.33 80.71 120.33 92.53 88.75 92.53 88.75 110.83 115.94 110.83 115.94 122.54 88.75 122.54 88.75 142.1 121.38 142.1"/><polygon class="cls-3" points="148.7 0 120.19 67.71 70.62 67.71 99.13 0 148.7 0"/><polygon class="cls-3" points="385.72 166.92 356.87 235.43 307.3 235.43 336.15 166.92 385.72 166.92"/><polygon class="cls-3" points="456 0 427.49 67.71 377.92 67.71 406.43 0 456 0"/><polygon class="cls-3" points="231.73 67.71 182.16 67.71 153.65 0 203.22 0 231.73 67.71"/><path class="cls-1" d="m242.35,124.53c4.41-1.34,7.91-3.71,10.43-6.83,3.19-3.91,4.84-9,4.84-14.71,0-11.86-7.83-20.3-20.29-21.97-1.5-.21-3.07-.31-4.7-.31h-24.37v73.21h12.65v-27.71h8.79l15.69,27.71h15.27l-18.31-29.39Zm-9.62-9.72h-11.82v-22.39h11.3c8.37,0,12.44,4.81,12.44,10.78,0,7.53-5.12,11.61-11.92,11.61Z"/><polygon class="cls-3" points="268.03 153.92 265.07 153.92 266.41 150.09 268.03 153.92"/><polygon class="cls-3" points="302.35 235.43 252.78 235.43 223.93 166.92 230 166.92 230 167 273.54 167 302.35 235.43"/><path class="cls-2" d="m266.41,150.09l-1.34,3.83h2.96l-1.62-3.83Z"/><polygon class="cls-1" points="266.41 150.09 268.03 153.92 265.07 153.92 266.41 150.09"/><polygon class="cls-1" points="456.03 153.92 440.45 153.92 420.79 122.02 412.42 122.02 412.42 153.92 399.76 153.92 399.76 80.71 412.42 80.71 412.42 110.2 420.79 110.2 439.61 80.71 454.88 80.71 431.56 115.85 456.03 153.92"/><polygon class="cls-1" points="386.67 142.21 386.67 153.92 344 153.92 344 80.71 356.65 80.71 356.65 142.21 386.67 142.21"/><path class="cls-1" d="m308.48,80.71h-17.78l-24.29,69.37h0s1.62,3.84,1.62,3.84h10.11l5.34-15.69h31.69l5.33,15.69h13.39l-25.41-73.21Zm-21.13,45.91l11.4-33.46h1.04l11.4,33.46h-23.84Z"/><path class="cls-1" d="m190.98,80.71v46.02c0,16.84-10.35,28.55-28.24,28.55s-28.24-11.5-28.24-28.45v-46.12h12.66v46.02c0,9.93,5.33,16.42,15.58,16.42s15.59-6.49,15.59-16.53v-45.91h12.65Z"/><polygon class="cls-1" points="58.36 80.71 58.36 153.92 36.82 153.92 35.63 150.81 13.6 93.16 12.66 93.16 12.66 153.92 0 153.92 0 80.71 21.34 80.71 42.35 134.84 44.97 141.58 45.81 141.58 45.81 80.71 58.36 80.71"/></svg>