<?xml version="1.0" encoding="UTF-8" standalone="no"?>
<!-- Generator: Adobe Illustrator 27.6.0, SVG Export Plug-In . SVG Version: 6.00 Build 0)  -->

<svg
   version="1.1"
   id="Layer_1"
   x="0px"
   y="0px"
   viewBox="0 0 525 236"
   style="enable-background:new 0 0 525 236;"
   xml:space="preserve"
   sodipodi:docname="logo_black_sdk.svg"
   inkscape:version="1.4.2 (ebf0e940, 2025-05-08)"
   xmlns:inkscape="http://www.inkscape.org/namespaces/inkscape"
   xmlns:sodipodi="http://sodipodi.sourceforge.net/DTD/sodipodi-0.dtd"
   xmlns="http://www.w3.org/2000/svg"
   xmlns:svg="http://www.w3.org/2000/svg"><defs
   id="defs12"><rect
     x="373.63368"
     y="150.43189"
     width="69.712339"
     height="46.474892"
     id="rect14" /><rect
     x="376.07972"
     y="161.4391"
     width="124.74839"
     height="76.438968"
     id="rect12" /></defs><sodipodi:namedview
   id="namedview12"
   pagecolor="#ffffff"
   bordercolor="#000000"
   borderopacity="0.25"
   inkscape:showpageshadow="2"
   inkscape:pageopacity="0.0"
   inkscape:pagecheckerboard="0"
   inkscape:deskcolor="#d1d1d1"
   showgrid="false"
   inkscape:zoom="1.6352916"
   inkscape:cx="277.32058"
   inkscape:cy="66.960536"
   inkscape:window-width="1512"
   inkscape:window-height="842"
   inkscape:window-x="0"
   inkscape:window-y="38"
   inkscape:window-maximized="1"
   inkscape:current-layer="Layer_1" />
<style
   type="text/css"
   id="style1">
	.st0{fill:#45B69C;}
	.st1{fill:#232D36;}
	.st2{fill:#FFFFFF;}
</style>
<g
   id="g12">
	<polygon
   class="st0"
   points="112.9,167.2 84.1,235.7 34.5,235.7 63.3,167.2  "
   id="polygon1" />
	<polygon
   class="st1"
   points="155.9,142.4 155.9,154.2 110.6,154.2 110.6,81 154.8,81 154.8,92.8 123.2,92.8 123.2,111.1    150.4,111.1 150.4,122.8 123.2,122.8 123.2,142.4  "
   id="polygon2" />
	<polygon
   class="st0"
   points="183.2,0.3 154.7,68 105.1,68 133.6,0.3  "
   id="polygon3" />
	<polygon
   class="st0"
   points="420.2,167.2 391.4,235.7 341.8,235.7 370.6,167.2  "
   id="polygon4" />
	<polygon
   class="st0"
   points="490.5,0.3 462,68 412.4,68 440.9,0.3  "
   id="polygon5" />
	<polygon
   class="st0"
   points="266.2,68 216.6,68 188.1,0.3 237.7,0.3  "
   id="polygon6" />
	<path
   class="st1"
   d="M276.8,124.8c4.4-1.3,7.9-3.7,10.4-6.8c3.2-3.9,4.8-9,4.8-14.7c0-11.9-7.8-20.3-20.3-22   c-1.5-0.2-3.1-0.3-4.7-0.3h-24.4v73.2h12.6v-27.7h8.8l15.7,27.7h15.3L276.8,124.8z M267.2,115.1h-11.8V92.7h11.3   c8.4,0,12.4,4.8,12.4,10.8C279.1,111,274,115.1,267.2,115.1z"
   id="path6" />
	<polygon
   class="st2"
   points="302.5,154.2 299.6,154.2 300.9,150.4  "
   id="polygon7" />
	<polygon
   class="st0"
   points="336.8,235.7 287.3,235.7 258.4,167.2 264.5,167.2 264.5,167.3 308,167.3  "
   id="polygon8" />
	<path
   class="st2"
   d="M300.9,150.4l-1.3,3.8h3L300.9,150.4z"
   id="path8" />
	<polygon
   class="st2"
   points="300.9,150.4 302.5,154.2 299.6,154.2  "
   id="polygon9" />
	<polygon
   class="st1"
   points="490.5,154.2 474.9,154.2 455.3,122.3 446.9,122.3 446.9,154.2 434.2,154.2 434.2,81 446.9,81    446.9,110.5 455.3,110.5 474.1,81 489.4,81 466,116.1  "
   id="polygon10" />
	<polygon
   class="st1"
   points="421.2,142.5 421.2,154.2 378.5,154.2 378.5,81 391.1,81 391.1,142.5  "
   id="polygon11" />
	<path
   class="st1"
   d="M343,81h-17.8l-24.3,69.4v0l1.6,3.8h10.1l5.3-15.7h31.7l5.3,15.7h13.4L343,81z M321.8,126.9l11.4-33.5h1   l11.4,33.5H321.8z"
   id="path11" />
	<path
   class="st1"
   d="M225.5,81v46c0,16.8-10.3,28.6-28.2,28.6c-18.2,0-28.2-11.5-28.2-28.5V81h12.7v46c0,9.9,5.3,16.4,15.6,16.4   c10.2,0,15.6-6.5,15.6-16.5V81H225.5z"
   id="path12" />
	<polygon
   class="st1"
   points="92.8,81 92.8,154.2 71.3,154.2 70.1,151.1 48.1,93.4 47.1,93.4 47.1,154.2 34.5,154.2 34.5,81    55.8,81 76.8,135.1 79.5,141.9 80.3,141.9 80.3,81  "
   id="polygon12" />
</g>
<text
   xml:space="preserve"
   id="text12"
   style="text-align:start;writing-mode:lr-tb;direction:ltr;white-space:pre;shape-inside:url(#rect12);shape-padding:0;fill:#000000"
   transform="translate(-241.66225,-9.1726756)"><tspan
     x="376.08008"
     y="208.20658"
     id="tspan2"><tspan
       style="font-weight:bold;font-size:53.3333px;font-family:'Courier New';-inkscape-font-specification:'Courier New, Bold';fill:#232d36"
       id="tspan1">SDK</tspan></tspan></text><text
   xml:space="preserve"
   style="text-align:start;writing-mode:lr-tb;direction:ltr;text-anchor:start;fill:#000000"
   x="441.51147"
   y="167.55421"
   id="text13"><tspan
     sodipodi:role="line"
     id="tspan13"></tspan></text><text
   xml:space="preserve"
   id="text14"
   style="fill:#000000;text-align:start;writing-mode:lr-tb;text-orientation:auto;direction:ltr;-inkscape-font-specification:'Courier New, Bold';font-family:'Courier New';font-weight:bold;font-style:normal;font-stretch:normal;font-variant:normal;font-size:42.66666667px;font-variant-ligatures:normal;font-variant-caps:normal;font-variant-numeric:normal;font-variant-east-asian:normal;white-space:pre;shape-inside:url(#rect14)" /></svg>
